# xmcd
#
# Track frame offsets:
#	150
#	18482
#	36487
#	57022
#	68702
#	99767
#	115554
#	132597
#	155782
#	167042
#	181220
#	194572
#	207425
#	224110
#	236007
#	255407
#	289412
#	302310
#
# Disc length: 4284 seconds
#
# Revision: 3
# Processed by: cddbd v1.4PL0 Copyright (c) Steve Scherf et al.
# Submitted via: dBpowerAMP V4.0
#
DISCID=0a10ba12
DTITLE=Paul Kelly and The Messengers - Hidden Things
DYEAR=1992
DGENRE=Folk
TTITLE0=Reckless
TTITLE1=When I First Met Your Ma
TTITLE2=Sweet Guy Waltz
TTITLE3=Hard Times
TTITLE4=Other People's Houses
TTITLE5=Special Treatment
TTITLE6=Little Decisions
TTITLE7=Rally Round The Drum
TTITLE8=Pastures of Plenty
TTITLE9=Beggar on The Street of Love
TTITLE10=Pouring Petrol on a Burning Man
TTITLE11=From st Kilda to Kings Cross
TTITLE12=Brand New Ways
TTITLE13=Rock 'n' Soul
TTITLE14=Yil Lull
TTITLE15=Bradman
TTITLE16=Ghost Town
TTITLE17=Elly
EXTD=
EXTT0=
EXTT1=
EXTT2=
EXTT3=
EXTT4=
EXTT5=
EXTT6=
EXTT7=
EXTT8=
EXTT9=
EXTT10=
EXTT11=
EXTT12=
EXTT13=
EXTT14=
EXTT15=
EXTT16=
EXTT17=
PLAYORDER=
